<svg width="18" height="19" viewBox="0 0 18 19" fill="none" xmlns="http://www.w3.org/2000/svg">
<g clip-path="url(#clip0_1035_2733)">
<path d="M11.5655 10.2402L10.0705 11.7402C9.46433 12.3486 8.39769 12.3617 7.77836 11.7402L6.28337 10.2402L0.914062 15.627C1.11393 15.7194 1.33429 15.7745 1.56856 15.7745H16.2803C16.5146 15.7745 16.7349 15.7195 16.9347 15.627L11.5655 10.2402Z" fill="#FF0000"/>
<path d="M16.2803 3.22461H1.56849C1.33422 3.22461 1.11386 3.27976 0.914062 3.37218L6.65155 9.12871C6.65194 9.12909 6.65239 9.12916 6.65277 9.12954C6.65316 9.12993 6.65323 9.13045 6.65323 9.13045L8.5188 11.0022C8.71695 11.2003 9.13188 11.2003 9.33004 11.0022L11.1952 9.13076C11.1952 9.13076 11.1957 9.12993 11.1961 9.12954C11.1961 9.12954 11.1969 9.12909 11.1973 9.12871L16.9346 3.37215C16.7348 3.27969 16.5145 3.22461 16.2803 3.22461Z" fill="#FF0000"/>
<path d="M0.16685 4.10352C0.0634489 4.31262 0 4.54473 0 4.79337V14.2061C0 14.4548 0.0633792 14.6869 0.166815 14.896L5.54543 9.49992L0.16685 4.10352Z" fill="#FF0000"/>
<path d="M17.6823 4.10352L12.3037 9.49999L17.6823 14.8961C17.7857 14.687 17.8491 14.4549 17.8491 14.2062V4.79344C17.8491 4.54473 17.7857 4.31262 17.6823 4.10352Z" fill="#FF0000"/>
</g>
<defs>
<clipPath id="clip0_1035_2733">
<rect width="17.8494" height="17.8494" fill="white" transform="translate(0 0.575195)"/>
</clipPath>
</defs>
</svg>
