<svg id="组_431" data-name="组 431" xmlns="http://www.w3.org/2000/svg" width="31.855" height="31.855" viewBox="0 0 31.855 31.855">
  <path id="路径_251" data-name="路径 251" d="M2606.892,613.692a15.035,15.035,0,0,0,9.851-3.392,14.583,14.583,0,0,0,5.082-8.4,22.869,22.869,0,0,0,.308-2.9c.032-.381.15-.646.569-.654a.566.566,0,0,1,.563.711c-.182,1.331-.306,2.677-.606,3.982a14.089,14.089,0,0,1-2.667,5.435,15.91,15.91,0,0,1-28.161-5.946,16.034,16.034,0,0,1-.219-6.116,15.856,15.856,0,0,1,12.049-13.021,29.825,29.825,0,0,1,3.58-.44.487.487,0,0,1,.6.5c.008.361-.213.577-.635.585a14.69,14.69,0,0,0-6.587,1.617,14.868,14.868,0,0,0-6.432,6.363,13.944,13.944,0,0,0-1.595,5.26,14.845,14.845,0,0,0,11.713,16.1A21.226,21.226,0,0,0,2606.892,613.692Z" transform="translate(-2591.417 -582.945)" fill="#ff4e00"/>
  <path id="路径_252" data-name="路径 252" d="M2740.564,664.846c0-1.547-.006-3.095,0-4.642,0-.881.679-1.442,1.392-1.154.594.24.675.794.685,1.33.024,1.31.007,2.621.008,3.931,0,1.469.009,2.937-.009,4.4a.587.587,0,0,0,.324.6c1.327.754,2.662,1.5,3.964,2.291a2.484,2.484,0,0,1,.9.937.8.8,0,0,1-.405.966,1.1,1.1,0,0,1-1.237.016c-1.677-.961-3.362-1.909-5.027-2.892a1.217,1.217,0,0,1-.611-1.145C2740.584,667.941,2740.564,666.393,2740.564,664.846Z" transform="translate(-2726.423 -651.771)" fill="#8991a0"/>
  <path id="路径_253" data-name="路径 253" d="M2817.24,588.675a1.206,1.206,0,0,1-1.207,1.234,1.262,1.262,0,0,1-1.249-1.22,1.308,1.308,0,0,1,1.239-1.245,1.218,1.218,0,0,1,1.216,1.231Z" transform="translate(-2793.622 -587.018)" fill="#ff4e00"/>
  <path id="路径_254" data-name="路径 254" d="M2863.771,623.694a1.2,1.2,0,1,1-2.409-.035,1.232,1.232,0,0,1,1.226-1.217A1.218,1.218,0,0,1,2863.771,623.694Z" transform="translate(-2835.786 -618.7)" fill="#ff4e00"/>
  <path id="路径_255" data-name="路径 255" d="M2892.859,675.545a1.148,1.148,0,0,1-1.208,1.213,1.2,1.2,0,1,1,1.208-1.213Z" transform="translate(-2862.127 -665.689)" fill="#ff4e00"/>
</svg>
