<svg xmlns="http://www.w3.org/2000/svg" width="86.913" height="100" viewBox="0 0 86.913 100">
  <g id="组_14" data-name="组 14" transform="translate(-789.538 70.478)">
    <path id="路径_9" data-name="路径 9" d="M791.543-70.478c1.577,2.07,3.091,4.193,4.751,6.195a66.678,66.678,0,0,0,4.727,5.127,6.7,6.7,0,0,0,2.54,1.451,3.09,3.09,0,0,0,4.317-3.052c0-1.92-.36-3.84-.536-5.762-.048-.522-.007-1.052-.007-1.927a9.53,9.53,0,0,1,1.813.8c.813.62,1.542,1.352,2.306,2.038A35.877,35.877,0,0,0,814.29-63.1a12.461,12.461,0,0,0,3.084,1.707c2.778.978,4.456-.175,4.734-3.085a11.586,11.586,0,0,1,.281-1.986,1.035,1.035,0,0,1,1.653-.71,12,12,0,0,1,1.988,1.469c1.613,1.392,3.148,2.877,4.8,4.214a5.434,5.434,0,0,0,4.44,1.2,4.366,4.366,0,0,0,3.792-3.121c.107-.339.218-.676.318-1.016.524-1.781.777-1.956,2.358-1.081A45.777,45.777,0,0,1,858.62-50.26a17.255,17.255,0,0,1,2.66,6.907,11.431,11.431,0,0,1-2.594,9.057c-.24.3-.488.6-.884,1.084,4.452-1.581,8.713-2.184,12.959-.127a12.578,12.578,0,0,1,5.689,5.7,37.624,37.624,0,0,0-19.421,4.461c5.1,3,8.91,6.933,10.589,12.759-5.163-2.462-8.936-3.465-12.324-3.26.078.34.148.659.225.977.845,3.486,1.809,6.95,2.484,10.468a14.363,14.363,0,0,1,.03,5.055c-.733,4.249-3.81,6.708-8.441,7.055A9.184,9.184,0,0,1,839.61-.211c.391-4.494,2.134-8.747,5.439-13.232-.12-.013-.24-.066-.295-.027-3.678,2.62-6.95,5.655-8.985,9.747-2.5,5.028-2.248,9.971,1.245,14.468,2.29,2.949,5.583,4.286,9.206,4.854.386.06.776.092,1.4.164-1.189,4.831-1.485,8.19-3.14,13.759-12.156-1.65-37.346-4.855-49.956-19.549-2.3-3.089-3.183-8.528-3.085-11.544.18-5.571,5.406-11.449,9.027-15.089,6.769-6.8,13.683-13.466,20.536-20.186a1.437,1.437,0,0,0,.443-.661c-.319.128-.631.28-.958.381-2.406.745-4.769,1.827-7.231,2.152-6.682.88-12.158-1.614-16.4-6.778a32.769,32.769,0,0,1-6.483-14.691,30.918,30.918,0,0,1-.5-11.413,15.025,15.025,0,0,1,.96-2.622Zm47.048,45.084a4.878,4.878,0,0,0,4.95-4.835,4.872,4.872,0,0,0-4.834-4.948,4.9,4.9,0,0,0-4.961,4.832A4.907,4.907,0,0,0,838.591-25.394Z" transform="translate(0)"/>
  </g>
</svg>
