<svg xmlns="http://www.w3.org/2000/svg" width="144" height="144" viewBox="0 0 144 144">
  <g id="组_186" data-name="组 186" transform="translate(-86.691 -212.731)">
    <path id="路径_229" data-name="路径 229" d="M86.691,212.731H115.44v8.429H95.265v20.258H86.691Z" transform="translate(0 0)"/>
    <path id="路径_230" data-name="路径 230" d="M86.691,520.231H95.27v20.216h20.39v8.472H86.691Z" transform="translate(0 -192.187)"/>
    <path id="路径_231" data-name="路径 231" d="M393.441,548.995v-8.416h20.383V520.353h8.447v1.7q0,12.641.006,25.281c0,.554.087,1.109.133,1.664Z" transform="translate(-191.719 -192.264)"/>
    <path id="路径_232" data-name="路径 232" d="M243.837,371.1H198.6V334.331H185.725V352H172.206v10.649h13.371v8.425H144.731v-8.348h18.891v-19.1h13.494v-30.98h-36.8V267.3h45.316V282.78h9.816v8.46h-9.684v34.438h17.114V313H211.3V325.67h24.148V313.791H225V305.38h10.4v-11.5H220.676v-8.43h23.161Zm-66.669-95.344h-28.4v28.3h28.4ZM235.457,334.3H207.082v28.309h28.375Z" transform="translate(-33.515 -34.105)"/>
    <path id="路径_233" data-name="路径 233" d="M422.488,241.484H414.2V221.358H393.981V212.92h28.507Z" transform="translate(-192.056 -0.118)"/>
    <path id="路径_234" data-name="路径 234" d="M171.17,423.487v8.262H146.821v-8.262Z" transform="translate(-37.581 -131.722)"/>
    <path id="路径_235" data-name="路径 235" d="M377.967,267.294v8.226H354.821v-8.226Z" transform="translate(-167.581 -34.102)"/>
    <path id="路径_236" data-name="路径 236" d="M151.641,470.993h8.51v8.28h-8.51Z" transform="translate(-40.594 -161.414)"/>
    <path id="路径_237" data-name="路径 237" d="M302.762,275.475V267.24h8.532v8.235Z" transform="translate(-135.044 -34.068)"/>
    <path id="路径_238" data-name="路径 238" d="M307.217,344.068h8.468v8.292h-8.468Z" transform="translate(-137.829 -82.086)"/>
    <path id="路径_239" data-name="路径 239" d="M189.3,314.716h8.552v8.257H189.3Z" transform="translate(-64.134 -63.741)"/>
    <path id="路径_240" data-name="路径 240" d="M351.469,472.629v8.256h-8.535v-8.256Z" transform="translate(-160.152 -162.436)"/>
  </g>
</svg>
