<?xml version="1.0" encoding="utf-8"?>
<!-- Generator: Adobe Illustrator 23.0.1, SVG Export Plug-In . SVG Version: 6.00 Build 0)  -->
<svg version="1.1" id="Layer_1" xmlns="http://www.w3.org/2000/svg" xmlns:xlink="http://www.w3.org/1999/xlink" x="0px" y="0px"
	 viewBox="0 0 241 241" style="enable-background:new 0 0 241 241;" xml:space="preserve">
<style type="text/css">
	.st0{fill:#39C654;}
	.st1{fill:#FFFFFF;}
</style>
<rect class="st0" width="241" height="241"/>
<g>
	<path class="st1" d="M146.0882721,41.8093834l9.3791504-17.4401894l-1.9265442-1.0570068l-9.3992462,17.4598541
		c-7.0709839-3.5990944-15.0717621-5.6457367-23.5545883-5.6457367c-8.0677338,0-15.6601028,1.8595963-22.4507217,5.1247673
		l-9.1105042-16.9388847l-1.9399414,1.0570068l9.070343,16.830925
		C79.9605026,49.9507599,68.8891296,66.9423676,68.769455,86.6095505h103.675354
		C172.3184357,67.397644,161.7023315,50.6797028,146.0882721,41.8093834z M93.8882141,66.6415024
		c-2.7098846,0-4.9427414-2.2474976-4.9427414-4.9172134c0-2.742527,2.2328568-4.9636612,4.9427414-4.9636612
		c2.7165833,0,4.9511108,2.2211342,4.9511108,4.9636612C98.839325,64.3940048,96.6047974,66.6415024,93.8882141,66.6415024z
		 M146.429718,66.6415024c-2.7090454,0-4.9042358-2.2474976-4.9042358-4.9172134
		c0-2.742527,2.1951904-4.9636612,4.9042358-4.9636612c2.7559204,0,4.9502716,2.2211342,4.9502716,4.9636612
		C151.3799896,64.3940048,149.1856384,66.6415024,146.429718,66.6415024z"/>
	<path class="st1" d="M60.5536232,146.1212463c0,4.8035736-3.940136,8.7772675-8.7566338,8.7772675
		c-4.8629799,0-8.7969894-3.9736938-8.7969894-8.7772675v-42.3521652c0-4.8430252,3.9340096-8.7498245,8.7969894-8.7498245
		c4.8164978,0,8.7566338,3.9067993,8.7566338,8.7498245V146.1212463z"/>
	<path class="st1" d="M172.8069153,173.5092163c0,7.2585297-5.8740387,13.1318817-13.152298,13.1318817h-14.0279694v22.2563019
		c0,4.8233032-3.9333344,8.7904205-8.7969971,8.7904205c-4.823288,0-8.7498169-3.9671173-8.7498169-8.7904205V186.641098
		h-14.9519653v22.2563019c0,4.8233032-3.9265289,8.7904205-8.769783,8.7904205
		c-4.8369064,0-8.7702332-3.9671173-8.7702332-8.7904205V186.641098H81.5324402
		c-7.251503,0-13.1250839-5.8733521-13.1250839-13.1318817V95.3466721v-0.3274155h104.3591995
		c0.0199585,0.1267471,0.0403595,0.2206192,0.0403595,0.3274155V173.5092163z"/>
	<path class="st1" d="M198,146.1212463c0,4.8035736-3.9272003,8.7772675-8.7702332,8.7772675
		c-4.8301086,0-8.7498322-3.9736938-8.7498322-8.7772675v-42.3521652c0-4.8430252,3.9197235-8.7498245,8.7498322-8.7498245
		c4.8430328,0,8.7702332,3.9067993,8.7702332,8.7498245V146.1212463z"/>
</g>
</svg>
