<?xml version="1.0" encoding="utf-8"?>
<!-- Generator: Adobe Illustrator 23.0.1, SVG Export Plug-In . SVG Version: 6.00 Build 0)  -->
<svg version="1.1" id="Layer_1" xmlns="http://www.w3.org/2000/svg" xmlns:xlink="http://www.w3.org/1999/xlink" x="0px" y="0px"
	 viewBox="0 0 45 26" style="enable-background:new 0 0 45 26;" xml:space="preserve">
<style type="text/css">
	.st0{fill:#A2AABD;}
	.st1{fill:#BEC4D1;}
</style>
<g>
	<path class="st0" d="M45,9c-4.5-5.5-12.8-9.2-22.4-9.2S4.7,3.5,0.3,9h17.6c2.7-3.1,7.8-5.2,13.6-5.2C37.2,3.8,42.3,5.9,45,9z"/>
	<path class="st1" d="M0.2,17c4.6,5.5,12.9,9.2,22.4,9.2S40.5,22.5,45,17H27.3c-2.7,3.1-7.8,5.2-13.6,5.2S3,20.1,0.2,17z"/>
	<path class="st0" d="M8.7,11.5H6.9c-0.5,0-0.9,0.2-1.2,0.5c-0.2,0.3-1.4,2.1-1.4,2.1S3,12.2,2.9,12s-0.8-0.5-1.4-0.5s-1.4,0-1.4,0
		s2.5,2.9,2.6,3.1C2.7,14.7,3.3,15,4.2,15s1.5-0.2,1.7-0.4c0.3-0.3,1.6-1.9,1.6-1.9s0,1.7,0,1.9S7.9,15,8.7,15
		c0.8,0,1.3-0.2,1.3-0.4V12C10,11.7,9.5,11.5,8.7,11.5z M41.8,14.2c-0.5,0-0.8-0.2-0.8-0.6s0-1.6,0-1.6c0-0.3-0.4-0.5-1.2-0.5
		c-0.8,0-1.2,0.1-1.2,0.5s0,2.3,0,2.3s-3.6,0-4,0c-0.4,0-0.5-0.1-0.5-0.4s0-0.3,0-0.3s2.5,0,3,0s0.8,0,0.8-0.3s0-0.3,0-0.3
		s-2.7,0-3.2,0c-0.4,0-0.5-0.1-0.5-0.3s0-0.3,0-0.3s2.8,0,3.2,0c0.4,0,0.9-0.1,0.9-0.3c0-0.2,0-0.5,0-0.5s-4.1,0-9.2,0
		c-0.3,0-0.3-0.3-0.3-0.3V11c0-0.2-0.4-0.4-1.2-0.4c-0.7,0-1.3,0.2-1.3,0.4v0.1l0,0c0,0,0,0.3-0.3,0.3h-2.9c-0.3,0-0.3-0.3-0.3-0.3
		l0,0V11c0-0.2-0.4-0.4-1.2-0.4c-0.7,0-1.3,0.2-1.3,0.4v0.1c0,0,0,0.3-0.3,0.3h-8.6c-0.4,0-0.7,0.1-0.7,0.5c0,0.2,0,2.6,0,2.6
		c0,0.2,0.3,0.4,1,0.4h4.8c0.3,0,0.8-0.2,0.8-0.5c0-0.2,0-0.3,0-0.3s-3.3,0-3.6,0S13,14,13,13.7c0-0.3,0-0.3,0-0.3s2.6,0,3,0
		c0.3,0,0.8,0,0.8-0.3s0-0.3,0-0.3s-2.9,0-3.2,0c-0.3,0-0.5-0.1-0.5-0.2c0-0.2,0-0.2,0-0.2s5.4,0,6,0s1.1,0.2,1.1,0.8v1.4
		c0,0.2,0.5,0.4,1.2,0.4s1.2-0.2,1.2-0.4v-1.4c0-0.3,0.3-0.8,1-0.8h1.6c0.5,0,1,0.3,1,0.8v1.4c0,0.2,0.4,0.4,1.2,0.4
		c0.7,0,1.3-0.2,1.3-0.4v-1.4c0-0.3,0.4-0.8,0.9-0.8h1.2c0.4,0,0.9,0.3,0.9,0.8v1.4c0,0.2,0.2,0.4,0.8,0.4h11.4c0.5,0,1-0.2,1-0.4
		c0-0.3,0-0.4,0-0.4S42.3,14.2,41.8,14.2z"/>
</g>
</svg>
