<?xml version="1.0" encoding="utf-8"?>
<!-- Generator: Adobe Illustrator 23.0.1, SVG Export Plug-In . SVG Version: 6.00 Build 0)  -->
<svg version="1.1" id="Layer_1" xmlns="http://www.w3.org/2000/svg" xmlns:xlink="http://www.w3.org/1999/xlink" x="0px" y="0px"
	 viewBox="0 0 241 241" style="enable-background:new 0 0 241 241;" xml:space="preserve">
<style type="text/css">
	.st0{fill:#50535B;}
	.st1{fill:#FFFFFF;}
</style>
<rect class="st0" width="241" height="241"/>
<g>
	<path class="st1" d="M121.2411118,51.348793c5.4801407-11.6322784,14.5649033-19.1841011,26.5052109-23.5238495
		c2.407547-0.8256474,4.8852081-1.2736435,7.4120941-1.6935482c1.0709991-0.2028713,1.2945251,0.4830475,1.3574219,1.2806034
		c0.0845184,1.1411171,0.2660217,2.3732243,0.1543732,2.9607086c-0.0698547,9.0355377-2.8627472,16.6298561-7.4819489,23.5591431
		c-5.2563934,7.8106346-12.3674164,13.2490044-21.340538,16.1816216c-2.7436752,0.882309-5.5502472,1.3720779-8.4478149,1.3720779
		c-1.1411209,0-1.5816727-0.4410324-1.672905-1.5749512C116.9717026,63.3176727,118.4554214,57.1933823,121.2411118,51.348793z"/>
	<path class="st1" d="M201.1219025,166.0920868c-5.7043915,13.2425232-13.3131104,25.4281921-22.7335052,36.3320618
		c-3.2408905,3.6610413-6.9499359,7.0137939-11.3244934,9.4417572c-6.8661499,3.8154144-13.914505,3.8567047-21.0464325,0.8124542
		c-2.9607086-1.2179565-5.7816925-2.750885-8.7973785-3.7659607c-9.8546982-3.1213226-19.5771179-2.708374-29.1096268,1.2323608
		c-2.5059891,1.049881-4.9764481,2.1763458-7.4961243,3.1145935c-9.2247238,3.4295959-17.5258484,1.3159027-25.0704651-4.6542511
		c-4.6264114-3.6538391-8.3993225-8.0214233-11.8637238-12.7316284
		c-7.9926147-10.7929535-14.2782402-22.5087738-18.5404396-35.2612915
		c-3.0310516-9.0713043-4.990612-18.4288025-5.4736595-28.0174866c-0.5805244-10.547821,0.2379227-20.9412766,4.4307365-30.733078
		c6.6704788-15.2724228,17.9179039-25.6589127,34.0923271-30.3760681c3.1426849-0.9240799,6.3830948-1.3298264,9.4285507-1.190094
		c6.5297928-0.0765839,12.3666992,1.6172028,18.1411819,3.6603088c3.5347519,1.2040176,7.0334854,2.5552063,10.6313705,3.4367981
		c6.5300293,1.60952,12.8365402,1.049881,19.0515823-1.3718414c4.4444275-1.7360382,8.8821259-3.4924927,13.5500641-4.5351715
		c13.9846191-3.1916733,26.5270538-0.0417786,37.8092957,8.5945053c3.1282806,2.3307266,5.9070129,5.0184631,8.3921204,7.9933319
		c1.0076294,1.154808,0.9586487,1.3999329-0.357254,2.2399826c-11.681488,7.1110306-18.5195465,17.5256042-19.6885223,31.1736298
		c-1.1545563,12.7311401,2.7506409,23.8736572,11.5842743,33.1756744c3.8629456,4.0173187,8.3983459,7.0690155,13.5006104,9.2597809
		C201.6952209,164.4753723,201.7446747,164.7276917,201.1219025,166.0920868z"/>
</g>
</svg>
