<?xml version="1.0" encoding="utf-8"?>
<!-- Generator: Adobe Illustrator 23.0.1, SVG Export Plug-In . SVG Version: 6.00 Build 0)  -->
<svg version="1.1" id="Layer_1" xmlns="http://www.w3.org/2000/svg" xmlns:xlink="http://www.w3.org/1999/xlink" x="0px" y="0px"
	 viewBox="0 0 155 50" style="enable-background:new 0 0 155 50;" xml:space="preserve">
<style type="text/css">
	.st0{fill:#A2AABD;}
</style>
<g>
	<path class="st0" d="M63.3383369,4.4772372c-2.8764992-3.0423753-6.8040581-4.480679-11.3401337-4.480679
		c-4.5359688,0-14.1611366,1.2170342-28.0458183,8.9060669C10.0677052,16.5917625,4.7019482,21.404398,2.5722961,23.8936539
		C0.4425388,26.3829079,0,27.2679844,0,29.3147011c0,2.0468197,2.876502,2.9318962,5.1444874,3.3744354
		c0,0,8.9453802,1.4973793,14.8089657,3.9866333c5.8636932,2.4893608,8.700882,5.1407051,11.577383,7.1874199
		s8.7954845,6.1402512,16.7611828,6.1402512c9.7358551,0,13.220768-7.523159,15.2675896-13.4421425
		c2.0467148-5.9189816,3.8168716-11.2294464,3.8168716-18.7525005C67.3764801,10.2856379,66.2148438,7.5197177,63.3383369,4.4772372
		z M38.7802734,33.3991966c-0.7526321,1.2513008-2.3176003,1.887043-4.6520195,1.887043h-5.4399681
		c-2.7464733,0-4.5536289-0.5381927-5.5232201-1.6465378c-0.9418392-1.0730247-1.3993053-3.1753464-1.3993053-6.424696v-0.885498
		c0-3.2813034,0.322916-5.5097656,0.9880924-6.8115234c0.7517891-1.4716244,2.4681244-2.2183704,5.0993919-2.2183704
		l4.8244095-0.0714779l2.6363106,0.1202526c0.0016823,0,0.0025215,0,0.0042038,0
		c1.4968529,0,2.6270638,0.5129662,3.3191452,1.5229225c0.6306992,0.9233398,0.9367981,2.2503242,0.9367981,4.0566406v0.8611107
		h-3.2762604v-0.8611107c0-1.6086979-0.3397369-1.8853626-0.3430977-1.887886
		c-0.150528-0.1025925-0.6651764-0.3414173-2.1956673-0.3414173l-4.1903477-0.0479317l-2.4908314,0.1194115
		c-0.9990234,0.1152077-1.4136009,0.3548717-1.5666504,0.4868984c-0.0025215,0.0016804-0.3128242,0.3145065-0.3128242,1.982069
		l-0.078207,4.1373692c0,1.6398106,0.094183,2.9012051,0.2800293,3.7370872
		c0.0950241,0.4238281,0.9536133,0.6777897,2.2974167,0.6777897l4.9925938,0.072319
		c0.5609016,0,1.3194199-0.0538197,2.2536888-0.161459c0.9435234-0.1093197,1.0940514-0.4877377,1.1428223-0.612196
		c0.1244583-0.3145065,0.2699394-0.9586582,0.3145103-2.2705078h-6.7862968v-3.3275547h10.1416016l0.0319557,2.271349
		C39.7885475,30.434082,39.4589043,32.2723541,38.7802734,33.3991966z M58.3604584,29.0600052
		c0,2.2301426-0.3060951,3.7454948-0.9367943,4.6318359c-0.6946068,0.973793-2.0745697,1.4480782-4.2189369,1.4514427
		l-4.7975006,0.1429558l-2.9180222-0.1446381c-1.9854355-0.2438698-4.276123-1.3824883-4.276123-5.4408092l-0.0773659-3.0256615
		c0-1.2496204,0.0092506-2.1628704,0.0294304-2.7607708c0.0201836-0.6315365,0.1160507-1.4749889,0.2918053-2.5782871
		c0.2009811-1.2622337,0.7131081-2.2452793,1.5212402-2.923069c0.8022461-0.6744251,1.8971329-1.0175228,3.2535515-1.0175228
		c0.4263535-0.0706387,0.9443626-0.1194115,1.4321022-0.1387539c0.468399-0.0193405,1.0217285-0.0285912,1.6566315-0.0285912
		h2.3310547c0.7812233,0,1.4161224,0.0218639,1.9004974,0.0639095c0.5163307,0.0445709,1.1621628,0.167345,1.9753418,0.3758965
		c1.035183,0.2657337,1.7894974,0.9922962,2.1813698,2.1014805c0.333847,0.9426823,0.4961472,2.1410046,0.4961472,3.6614037
		v0.8611126h-3.2762566v-0.8611126c0-0.8358822-0.0327988-1.4051914-0.0975494-1.8416328
		c-0.0361595-0.2405071-0.105957-0.4187832-0.1917305-0.4877396c-0.0227051-0.0176601-0.2447128-0.1807995-1.0662994-0.3136654
		c-0.6626511-0.1067982-1.6103783-0.1606178-2.8145866-0.1606178c-0.4557838,0-1.1445045,0.02775-2.0678444,0.0815697
		c-0.9670677,0.0580235-1.6961555,0.0857754-2.1872559,0.0857754c-1.2159843,0.1269798-1.4632187,0.4103718-1.4724655,0.4221458
		c-0.0882988,0.1067982-0.3044167,0.467556-0.3893509,1.4867611c-0.0756836,0.9107265-0.1202545,1.7390423-0.1328659,2.4841042
		c-0.0126152,0.7576771-0.0193443,1.4791946-0.0193443,2.1653919c0,2.3831921,0.2312584,3.424263,0.4255104,3.8766823
		c0.2245293,0.5247402,1.125164,0.6340599,1.8407936,0.6340599h5.9260254c1.3555794,0,1.831543-0.2455502,1.9736595-0.3498268
		c0.0134544-0.0100899,0.3515091-0.2791882,0.3515091-1.814724v-1.5002174h3.3536224V29.0600052z"/>
	<g>
		<path class="st0" d="M84.0870514,21.4628277c0,2.3447437-0.7617645,3.1780281-2.9169312,3.1780281h-4.808403
			c-2.3326797,0-3.0703125-1.0478535-3.0703125-3.2262859v-2.3568077c0-2.1775703,0.7376328-3.2254229,3.0703125-3.2254229
			h4.4042587c1.5467911,0,3.2012939,0.3808813,3.2012939,2.3688726v0.3093567h-1.0943832
			c0-1.6071091-0.4885941-1.7260265-3.3684692-1.7260265h-3.0237808c-1.118515,0-2.0233231,0.3334866-2.0233231,1.83288v3.2374878
			c0,1.5002575,0.904808,1.8328819,2.0233231,1.8328819h4.5593643c1.1659088,0,1.8802795-0.4041481,1.8802795-1.5941849v-0.8694763
			h-4.4163208v-0.9522018h5.5830917V21.4628277z"/>
		<path class="st0" d="M90.0875092,15.9279909h1.452858l5.1186295,8.6172132h-1.3218842l-1.0719833-1.8208179h-6.9023819
			l-1.0719833,1.8208179h-1.321022L90.0875092,15.9279909z M90.8148041,16.8801918l-2.8936615,4.8919926h5.7855911
			L90.8148041,16.8801918z"/>
		<path class="st0" d="M97.6420898,15.9279909h1.8199539l5.0358963,7.2246714l5.0341797-7.2246714h1.8216782v8.6172132h-1.1667709
			v-7.5702229h-0.0241241l-5.2496109,7.5702229h-0.8324203l-5.2496109-7.5702229h-0.0241241v7.5702229h-1.1650467V15.9279909z"/>
		<path class="st0" d="M113.867569,15.9279909h1.1667709v8.6172132h-1.1667709V15.9279909z"/>
		<path class="st0" d="M117.495903,15.9279909h1.7372284l7.8916397,7.5702219v-7.5702219h1.1667786v8.6172132h-1.7389603
			l-7.8916397-7.5702229v7.5702229h-1.1650467V15.9279909z"/>
		<path class="st0" d="M141.4397888,21.4628277c0,2.3447437-0.7617645,3.1780281-2.9160614,3.1780281h-4.8084106
			c-2.3335419,0-3.071167-1.0478535-3.071167-3.2262859v-2.3568077c0-2.1775703,0.7376251-3.2254229,3.071167-3.2254229h4.4033966
			c1.5476532,0,3.2021637,0.3808813,3.2021637,2.3688726v0.3093567h-1.0961151c0-1.6071091-0.4877319-1.7260265-3.3676147-1.7260265
			h-3.0229187c-1.120224,0-2.0233154,0.3334866-2.0233154,1.83288v3.2374878c0,1.5002575,0.9030914,1.8328819,2.0233154,1.8328819
			h4.5585175c1.1667633,0,1.8802643-0.4041481,1.8802643-1.5941849v-0.8694763h-4.415451v-0.9522018h5.5822296V21.4628277z"/>
	</g>
	<g>
		<path class="st0" d="M73.3079605,30.3362331c0-2.1779938,0.7377777-3.2260513,3.0709152-3.2260513h4.4645844
			c2.1193924,0,2.7020264,0.9885864,2.7020264,2.1435184v0.7377777h-1.0239258v-0.3930206
			c0-1.4643517-0.9041214-1.5358887-1.9754486-1.5358887H76.497818c-1.1187363,0-2.0237198,0.3335514-2.0237198,1.8332405v3.2381172
			c0,1.5005493,0.9049835,1.8341026,2.0237198,1.8341026h4.0836334c1.5712204,0,2.0237122-0.3335533,2.0237122-1.5005493v-0.5352325
			h1.0954666v0.582634c0,1.5600204-0.4999008,2.4046745-2.9166336,2.4046745h-4.4051208
			c-2.3331375,0-3.0709152-1.0471954-3.0709152-3.2260551V30.3362331z"/>
		<path class="st0" d="M85.5804062,27.2058506h1.1661377v6.4400387c0,0.8334465,0.2861481,1.3221397,1.8703003,1.3221397h4.0474319
			c1.5824356,0,1.868576-0.4886932,1.868576-1.3221397v-6.4400387h1.1669998v6.4521046
			c0,1.7504997-0.8808517,2.2616005-3.0717697,2.2616005h-3.9767609c-2.1892014,0-3.0709152-0.5111008-3.0709152-2.2616005
			V27.2058506z"/>
		<path class="st0" d="M97.9131851,27.2058506h6.8916702c2.4891357,0,2.8821564,0.8213806,2.8821564,2.4400101v0.7024403
			c0,1.2144012-0.6912308,1.5479527-1.5841522,1.6315556v0.0232716c1.1911316,0.2146111,1.4755554,0.8334465,1.4755554,1.6194916
			v2.2021255h-1.0945969v-1.8927078c0-1.3454094-0.6550369-1.5117531-1.7134399-1.5117531h-5.6919174v3.4044609h-1.1652756
			V27.2058506z M104.673851,31.4678955c1.2980042,0,1.8461609-0.3456173,1.8461609-1.2506027v-0.785181
			c0-0.9644547-0.4171524-1.2738724-2.1305847-1.2738724h-5.3109665v3.3096561H104.673851z"/>
		<path class="st0" d="M113.5344543,27.2058506h1.4531479l5.1196213,8.6188946h-1.3221359l-1.0721893-1.8211708h-6.9037399
			l-1.0721893,1.8211708h-1.3204117L113.5344543,27.2058506z M114.2618942,28.1582394l-2.8942261,4.8929462h5.7867279
			L114.2618942,28.1582394z"/>
		<path class="st0" d="M120.7704773,30.3362331c0-2.1779938,0.7377777-3.2260513,3.0717773-3.2260513h4.4628601
			c2.1202545,0,2.7028809,0.9885864,2.7028809,2.1435184v0.7377777h-1.0239258v-0.3930206
			c0-1.4643517-0.9049835-1.5358887-1.9754486-1.5358887h-4.0474319c-1.1204529,0-2.0237122,0.3335514-2.0237122,1.8332405
			v3.2381172c0,1.5005493,0.9032593,1.8341026,2.0237122,1.8341026h4.0836411c1.5703583,0,2.0237122-0.3335533,2.0237122-1.5005493
			v-0.5352325h1.0946045v0.582634c0,1.5600204-0.4999084,2.4046745-2.9166412,2.4046745h-4.4042511
			c-2.3339996,0-3.0717773-1.0471954-3.0717773-3.2260551V30.3362331z"/>
		<path class="st0" d="M136.714035,27.2058506h1.4531555l5.1196136,8.6188946h-1.3221283l-1.0721893-1.8211708h-6.9037323
			l-1.0722046,1.8211708h-1.3204041L136.714035,27.2058506z M137.4414825,28.1582394l-2.8942261,4.8929462h5.7867279
			L137.4414825,28.1582394z"/>
		<path class="st0" d="M143.893692,30.3362331c0-2.1779938,0.7377777-3.2260513,3.0717773-3.2260513h4.9627533
			c2.3339996,0,3.0717773,1.0480576,3.0717773,3.2260513v2.3572674c0,2.1788597-0.7377777,3.2260551-3.0717773,3.2260551h-4.9627533
			c-2.3339996,0-3.0717773-1.0471954-3.0717773-3.2260551V30.3362331z M153.8347321,29.8958092
			c0-1.4996891-0.9049835-1.8332405-2.0254517-1.8332405h-4.7248688c-1.1204681,0-2.0237274,0.3335514-2.0237274,1.8332405
			v3.2381172c0,1.5005493,0.9032593,1.8341026,2.0237274,1.8341026h4.7248688c1.1204681,0,2.0254517-0.3335533,2.0254517-1.8341026
			V29.8958092z"/>
	</g>
</g>
</svg>
